<?xml version="1.0" encoding="UTF-8" standalone="no"?>
<svg
   width="24"
   height="24"
   viewBox="0 0 24 24"
   fill="none"
   stroke="currentColor"
   stroke-width="2"
   stroke-linecap="round"
   stroke-linejoin="round"
   class="feather feather-code"
   version="1.1"
   id="svg2"
   sodipodi:docname="code.svg"
   inkscape:version="1.3.2 (091e20e, 2023-11-25, custom)"
   xmlns:inkscape="http://www.inkscape.org/namespaces/inkscape"
   xmlns:sodipodi="http://sodipodi.sourceforge.net/DTD/sodipodi-0.dtd"
   xmlns="http://www.w3.org/2000/svg"
   xmlns:svg="http://www.w3.org/2000/svg">
  <defs
     id="defs2" />
  <sodipodi:namedview
     id="namedview2"
     pagecolor="#ffffff"
     bordercolor="#000000"
     borderopacity="0.25"
     inkscape:showpageshadow="2"
     inkscape:pageopacity="0.0"
     inkscape:pagecheckerboard="0"
     inkscape:deskcolor="#d1d1d1"
     inkscape:zoom="11.976621"
     inkscape:cx="13.234117"
     inkscape:cy="-0.96020404"
     inkscape:window-width="1920"
     inkscape:window-height="1009"
     inkscape:window-x="1912"
     inkscape:window-y="-8"
     inkscape:window-maximized="1"
     inkscape:current-layer="svg2" />
  <polyline
     points="16 18 22 12 16 6"
     id="polyline1" />
  <polyline
     points="8 6 2 12 8 18"
     id="polyline2" />
  <path
     style="fill:#ff6600;fill-opacity:1;stroke-width:0.0590406"
     d="m 15.714367,18.940823 c -0.284062,-0.09289 -0.526026,-0.324615 -0.631095,-0.604378 -0.08307,-0.22119 -0.07039,-0.543454 0.02979,-0.757109 0.05605,-0.119546 0.584522,-0.663811 2.780325,-2.863431 L 20.604503,12.000076 17.893401,9.2841709 C 15.697937,7.0848177 15.169132,6.5401926 15.113075,6.4206642 15.012546,6.206309 15.000173,5.8848219 15.083875,5.6619444 c 0.08283,-0.2205685 0.283805,-0.4414424 0.49686,-0.5460665 0.141784,-0.069626 0.2056,-0.082668 0.404505,-0.082668 0.454724,0 0.157827,-0.2626342 3.681089,3.2562837 C 23.194544,11.813359 22.97663,11.5691 22.97663,12 c 0,0.430345 0.21586,0.188119 -3.295432,3.697938 -2.635562,2.634456 -3.15859,3.144107 -3.282674,3.198713 -0.182181,0.08017 -0.509459,0.101302 -0.684157,0.04417 z"
     id="path2" />
  <path
     style="fill:#ff9955;fill-opacity:1;stroke-width:0.0590406"
     d="M 7.7143669,18.940823 C 7.6465674,18.918652 7.5469364,18.872858 7.4929647,18.839061 7.4389928,18.805263 5.9920159,17.372205 4.2774607,15.654488 0.80211069,12.172728 1.0246587,12.422699 1.0237934,11.999895 1.0229125,11.569529 0.80496628,11.813848 4.3336708,8.289494 7.8569328,4.7705761 7.560036,5.0332103 8.0147601,5.0332103 c 0.1989048,0 0.2627206,0.013042 0.4045051,0.082668 0.2130548,0.1046241 0.4140254,0.325498 0.4968603,0.5460665 0.084685,0.2254968 0.072961,0.5466474 -0.027698,0.7587198 -0.056338,0.1186949 -0.6010728,0.679491 -2.7814944,2.8635067 l -2.7114358,2.7159047 2.71145,2.715829 c 2.1807705,2.184292 2.7251593,2.744718 2.7814946,2.863431 0.1006439,0.212083 0.1123622,0.533242 0.027684,0.758719 -0.082059,0.218502 -0.2840402,0.441639 -0.4917603,0.543267 -0.1960177,0.0959 -0.5165462,0.122764 -0.7099987,0.0595 z"
     id="path3" />
  <path
     style="fill:#ff9955;fill-opacity:1;stroke-width:0.041748"
     d="m 15.767859,18.912911 c -0.227102,-0.05422 -0.487552,-0.274978 -0.605162,-0.512945 -0.0628,-0.127074 -0.07698,-0.181126 -0.08618,-0.32867 -0.01251,-0.200583 0.01638,-0.358535 0.08871,-0.48495 0.07435,-0.129943 0.448011,-0.513637 3.045427,-3.127207 1.332812,-1.3411 2.426651,-2.44784 2.430754,-2.459421 0.0041,-0.01158 -1.123451,-1.154619 -2.505677,-2.5400846 C 16.753507,8.0741679 15.517819,6.8248882 15.389758,6.6834562 15.107001,6.3711735 15.081466,6.3138063 15.081466,5.9908383 c 0,-0.2036529 0.0048,-0.2292487 0.06735,-0.3613729 0.09068,-0.1914496 0.283344,-0.3908814 0.463148,-0.4794142 0.126204,-0.062141 0.154754,-0.0677 0.377057,-0.07342 0.233482,-0.00601 0.243566,-0.0044 0.344885,0.054929 0.164443,0.096295 0.421053,0.3314896 1.294188,1.1861827 0.909731,0.8905165 4.041235,4.0265001 4.607077,4.6136671 0.401877,0.417023 0.608232,0.661432 0.666441,0.789341 0.05547,0.121885 0.05421,0.445768 -0.0022,0.562226 -0.08053,0.166306 -0.326943,0.439354 -1.229378,1.362274 -1.072125,1.096462 -4.886711,4.880456 -5.124106,5.083013 -0.143382,0.12234 -0.180597,0.143203 -0.306545,0.171849 -0.149003,0.03389 -0.359283,0.0396 -0.471542,0.0128 z"
     id="path4" />
  <path
     style="fill:#ff9955;fill-opacity:1;stroke-width:0.041748"
     d="M 7.7122115,18.893353 C 7.6544053,18.872531 7.5839556,18.843105 7.5556565,18.827963 7.4018727,18.745677 1.6770096,13.010234 1.3100027,12.570766 1.0719485,12.285711 1.0596559,12.255245 1.0680594,11.971123 1.074968,11.737542 1.075504,11.735373 1.1546787,11.620504 1.3161983,11.386166 1.7030048,10.985807 3.7978464,8.8847302 6.1032479,6.5724664 7.2192601,5.4757185 7.4673409,5.2785777 7.7183708,5.0790935 7.7526469,5.0666497 8.0242093,5.0764078 8.2249198,5.08362 8.2717335,5.0924829 8.376608,5.1431244 8.7288987,5.3132376 8.9571993,5.6948497 8.9274631,6.0638973 8.9051139,6.3412668 8.8800833,6.3879195 8.5746762,6.7214283 8.4222329,6.8878985 7.1867284,8.1381735 5.8291105,9.4998171 4.4714924,10.861461 3.3607141,11.987973 3.3607141,12.003178 c 0,0.0152 1.1392999,1.169615 2.5317778,2.565355 1.3924776,1.395741 2.6270694,2.644136 2.7435373,2.774212 0.2361524,0.263743 0.2711713,0.3345 0.2910237,0.588022 0.014457,0.184628 -0.025288,0.368212 -0.1121454,0.51799 -0.074308,0.128138 -0.2671916,0.321117 -0.3768993,0.377086 -0.2127056,0.108514 -0.5300261,0.13803 -0.7257967,0.06751 z"
     id="path5" />
</svg>
